<svg width="78" height="77" viewBox="0 0 78 77" fill="none" xmlns="http://www.w3.org/2000/svg">
<path d="M10.7445 77.0057C5.22163 77.0023 0.68023 72.5036 1.40161 67.0281C2.2822 60.3441 4.04214 53.7897 6.64703 47.5365C10.5376 38.1968 16.237 29.7119 23.4197 22.5663C30.6023 15.4206 39.1277 9.75405 48.5089 5.89024C54.802 3.29832 61.3976 1.55165 68.1223 0.684467C73.5998 -0.0218837 78.0924 4.52438 78.089 10.0472L78.0538 67.0472C78.0504 72.5701 73.5705 77.0444 68.0476 77.041L10.7445 77.0057Z" fill="#E63312"/>
<path d="M0.744487 76.9995C0.750728 66.8877 2.75642 56.8762 6.64703 47.5365C10.5376 38.1968 16.237 29.7119 23.4197 22.5663C30.6023 15.4206 39.1277 9.75405 48.5089 5.89024C57.8901 2.02642 67.9436 0.0409549 78.0951 0.0472211L78.0781 27.6751C71.5689 27.6711 65.1227 28.9441 59.1075 31.4216C53.0923 33.8991 47.6259 37.5324 43.0204 42.1142C38.4149 46.696 34.7605 52.1365 32.2658 58.1251C29.7712 64.1136 28.4851 70.533 28.4811 77.0166L0.744487 76.9995Z" fill="#E63312"/>
</svg>
