<svg width="58" height="58" viewBox="0 0 58 58" fill="none" xmlns="http://www.w3.org/2000/svg">
<g clip-path="url(#clip0)">
<path d="M51.2031 39.082C52.316 39.082 2.30058 39.082 1.69922 39.082C0.746948 39.082 0 39.8215 0 40.7812C0 41.7331 0.747391 42.4805 1.69922 42.4805C1.82799 42.7411 2.4059 42.7738 2.66919 44.1797H46.1055C47.0445 44.1797 47.8047 44.9399 47.8047 45.8789C47.8047 46.8179 47.0445 47.5781 46.1055 47.5781H2.66963C2.40634 48.9835 1.82932 49.1278 1.69922 49.3906C0.747391 49.3906 0 50.138 0 51.0898C0 52.0501 0.746948 52.7891 1.69922 52.7891H51.2031C54.9326 52.7891 58 49.6331 58 45.8789C58 42.2579 55.0476 39.082 51.2031 39.082Z" fill="#FDC600"/>
<path d="M51.2031 22.0898C52.316 22.0898 9.09746 22.0898 8.49609 22.0898C7.54382 22.0898 6.79688 22.8293 6.79688 23.7891C6.79688 24.7409 7.54427 25.4883 8.49609 25.4883C8.62486 25.7489 9.20277 25.7817 9.46606 27.1875H46.1055C47.0445 27.1875 47.8047 27.9477 47.8047 28.8867C47.8047 29.8257 47.0445 30.5859 46.1055 30.5859H9.46651C9.20322 31.9913 8.62619 32.0223 8.49609 32.2852C7.54427 32.2852 6.79688 33.0325 6.79688 33.9844C6.79688 34.9446 7.54382 35.6836 8.49609 35.6836H51.2031C54.9326 35.6836 58 32.6409 58 28.8867C58 25.2657 55.0476 22.0898 51.2031 22.0898Z" fill="#FDC600"/>
<path d="M51.2031 5.09766C55.0476 5.09766 58 8.27351 58 11.8945C58 15.6487 54.9326 18.6914 51.2031 18.6914C50.4796 18.6914 21.8597 18.6914 22.2031 18.6914C21.2509 18.6914 20.5039 17.9524 20.5039 16.9922C20.5039 16.0404 21.2513 15.293 22.2031 15.293C22.3332 15.0301 22.9098 14.9991 23.1735 13.5938H46.1055C47.0445 13.5938 47.8047 12.8335 47.8047 11.8945C47.8047 10.9555 47.0445 10.1953 46.1055 10.1953H23.1731C22.9098 8.78947 22.3319 8.75673 22.2031 8.49609C21.2513 8.49609 20.5039 7.7487 20.5039 6.79688C20.5039 5.83708 21.2509 5.09766 22.2031 5.09766C22.5067 5.09766 51.666 5.09766 51.2031 5.09766Z" fill="#FDC600"/>
</g>
<defs>
<clipPath id="clip0">
<rect width="58" height="58" fill="white"/>
</clipPath>
</defs>
</svg>
