<svg width="50" height="50" viewBox="0 0 50 50" fill="none" xmlns="http://www.w3.org/2000/svg">
<path d="M7.42173 8.78912C7.34879 8.78912 7.28619 8.75787 7.21607 8.74762C6.79849 9.69303 6.46275 10.6811 6.25211 11.7188H11.5464C10.9397 10.0174 9.32896 8.78912 7.42173 8.78912Z" fill="#FDC600"/>
<path d="M20.6055 0C15.762 0 11.5019 2.37949 8.83511 6.00244C12.1988 6.66348 14.7461 9.6291 14.7461 13.1836V17.5781H35.254V14.6484C35.254 6.5584 28.6956 0 20.6055 0Z" fill="#FDC600"/>
<path d="M11.8164 14.6484H5.95703V17.5781H11.8164V14.6484Z" fill="#FDC600"/>
<path d="M36.7188 41.0156H30.3015C27.5196 42.863 24.1878 43.9453 20.6055 43.9453C17.0231 43.9453 13.6913 42.863 10.9095 41.0156H7.42188C3.37676 41.0156 0 44.49 0 48.5352C0 49.3441 0.753516 50 1.5625 50H42.5781C43.3871 50 44.043 49.3441 44.043 48.5352C44.043 44.49 40.7639 41.0156 36.7188 41.0156Z" fill="#FDC600"/>
<path d="M38.1835 20.7767V26.3672C38.1835 27.2991 38.0893 28.2075 37.949 29.1007C39.7728 28.5659 41.1132 26.8993 41.1132 24.9023C41.1132 22.9917 39.8864 21.382 38.1835 20.7767Z" fill="#FDC600"/>
<path d="M3.02734 26.3672V20.7767C1.32451 21.382 0 22.9917 0 24.9023C0 26.8993 1.43809 28.5659 3.26191 29.1007C3.12158 28.2075 3.02734 27.2991 3.02734 26.3672Z" fill="#FDC600"/>
<path d="M47.0703 11.7188H38.1836V17.5781H47.0703C48.6884 17.5781 50 16.2663 50 14.6484C50 13.0304 48.6884 11.7188 47.0703 11.7188Z" fill="#FDC600"/>
<path d="M5.95703 20.5078V26.3672C5.95703 34.4572 12.5154 41.0156 20.6055 41.0156C28.6955 41.0156 35.2539 34.4572 35.2539 26.3672V20.5078H5.95703ZM14.7461 23.4375C15.5551 23.4375 16.2109 24.0932 16.2109 24.9023C16.2109 25.7113 15.5551 26.3672 14.7461 26.3672C13.9371 26.3672 13.2812 25.7113 13.2812 24.9023C13.2812 24.0932 13.9371 23.4375 14.7461 23.4375ZM27.4419 35.4695C25.5594 37.1562 23.1317 38.0859 20.6055 38.0859C18.0792 38.0859 15.6516 37.1562 13.769 35.4695C13.1653 34.9288 13.1153 34.0032 13.6546 33.401C14.1968 32.7973 15.1252 32.7501 15.7231 33.2865C18.4153 35.6984 22.7956 35.6984 25.4878 33.2865C26.0872 32.7486 27.0156 32.7973 27.5563 33.401C28.0956 34.0032 28.0456 34.9288 27.4419 35.4695ZM26.4648 26.3672C25.6559 26.3672 25 25.7113 25 24.9023C25 24.0932 25.6559 23.4375 26.4648 23.4375C27.2738 23.4375 27.9297 24.0932 27.9297 24.9023C27.9297 25.7113 27.2738 26.3672 26.4648 26.3672Z" fill="#FDC600"/>
</svg>
