<svg width="81" height="81" viewBox="0 0 81 81" fill="none" xmlns="http://www.w3.org/2000/svg">
<path d="M58.852 49.3594C59.9784 49.3618 61.0848 49.6572 62.0625 50.2166C63.0401 50.776 63.8555 51.5801 64.4283 52.55L73.3307 67.6831L49.8078 62.0384C47.0695 61.395 44.1885 61.8339 41.766 63.2635V60.226L52.5049 54.2599C52.7485 54.1231 52.9401 53.9095 53.0496 53.6524C53.1592 53.3954 53.1806 53.1093 53.1105 52.8388C53.0405 52.5683 52.8828 52.3286 52.6622 52.1571C52.4416 51.9856 52.1705 51.8919 51.891 51.8906H49.3598V49.3594H58.852ZM47.3854 54.208L40.5004 58.0365L33.6104 54.208C33.7832 54.0923 33.9249 53.9359 34.0229 53.7524C34.121 53.569 34.1723 53.3642 34.1723 53.1562V41.7656H46.8285V53.1562C46.8286 53.3642 46.8799 53.569 46.9779 53.7524C47.0759 53.9359 47.2176 54.0923 47.3905 54.208H47.3854ZM40.5004 5.06248C45.3144 5.06254 49.9876 6.68657 53.7642 9.67188L52.5909 10.2579C52.3944 10.3573 52.2266 10.5055 52.1037 10.6882L49.5724 14.4851C49.4801 14.6233 49.416 14.7784 49.3837 14.9415C49.3514 15.1045 49.3515 15.2724 49.3841 15.4354C49.4166 15.5984 49.481 15.7534 49.5735 15.8915C49.6659 16.0297 49.7847 16.1482 49.923 16.2405L53.3592 18.5313L54.3932 21.632L53.2187 29.8586L48.7523 35.4375H48.4498L49.3218 31.9469C49.385 31.6938 49.3685 31.4274 49.2745 31.1841C49.1804 30.9408 49.0135 30.7324 48.7966 30.5876L44.9997 28.0564C44.8525 27.9581 44.6864 27.8917 44.512 27.8617C44.3376 27.8316 44.1588 27.8384 43.9872 27.8817L39.0791 29.1094H34.9544L31.9169 23.0344L35.0684 19.8829C35.3056 19.6456 35.4389 19.3237 35.4389 18.9881C35.4389 18.6526 35.3056 18.3307 35.0684 18.0934L31.641 14.6635V11.3906C31.6411 11.1823 31.5897 10.9772 31.4914 10.7935C31.3932 10.6098 31.2511 10.4532 31.0778 10.3376L28.5858 8.6771C32.111 6.31737 36.2583 5.05918 40.5004 5.06248ZM18.9848 26.5781C18.986 23.487 19.6552 20.4327 20.9464 17.6242C22.2376 14.8156 24.1204 12.3193 26.4659 10.306L29.1098 12.0677V15.1875C29.1099 15.5231 29.2432 15.845 29.4806 16.0823L32.3827 18.9844L29.4806 21.8864C29.2927 22.0741 29.1687 22.3162 29.126 22.5783C29.0833 22.8404 29.1241 23.1093 29.2427 23.347L33.0396 30.9407C33.1447 31.1511 33.3064 31.328 33.5064 31.4517C33.7065 31.5753 33.9371 31.6407 34.1723 31.6406H39.2348C39.3381 31.6407 39.4409 31.6279 39.5411 31.6026L44.0606 30.4724L46.6501 32.1987L45.6009 36.3968C45.5544 36.5834 45.5509 36.778 45.5909 36.9661C45.6308 37.1541 45.7131 37.3306 45.8314 37.4821C45.9498 37.6336 46.101 37.7562 46.2738 37.8405C46.4466 37.9248 46.6363 37.9687 46.8285 37.9687H49.3598C49.5496 37.9688 49.737 37.9262 49.9081 37.844C50.0792 37.7619 50.2296 37.6423 50.3482 37.4941L55.4107 31.166C55.5519 30.9895 55.6432 30.7784 55.6753 30.5547L56.9409 21.6953C56.9691 21.5006 56.9508 21.302 56.8877 21.1157L55.6221 17.3188C55.5335 17.0519 55.3585 16.8221 55.1247 16.6657L52.3808 14.8369L54.0261 12.3715L55.8094 11.4855C58.2464 13.952 60.0506 16.9714 61.068 20.2861C62.0854 23.6008 62.2858 27.1124 61.6522 30.5213C61.0186 33.9303 59.5698 37.1353 57.4293 39.8631C55.2888 42.5909 52.5203 44.7603 49.3598 46.1864V40.5C49.3598 40.1643 49.2264 39.8424 48.9891 39.605C48.7517 39.3677 48.4298 39.2344 48.0942 39.2344H37.9692V37.9687C37.9692 37.7604 37.9178 37.5553 37.8196 37.3716C37.7213 37.1879 37.5792 37.0313 37.406 36.9157L33.6091 34.3845C33.4009 34.2462 33.1566 34.1723 32.9067 34.1719H28.8326L27.8062 30.0687C27.7379 29.7948 27.5799 29.5516 27.3575 29.3777C27.135 29.2039 26.8609 29.1094 26.5785 29.1094H22.7817C22.446 29.1094 22.1242 29.2428 21.8869 29.4802L19.6214 31.7457C19.2005 30.0553 18.9868 28.3201 18.9848 26.5781ZM20.4909 34.4554L23.3056 31.6406H25.5838L26.6102 35.7438C26.6788 36.0187 26.8376 36.2627 27.0614 36.4367C27.2851 36.6106 27.5608 36.7044 27.8442 36.7031H32.527L35.4379 38.6458V39.2344H32.9067C32.571 39.2344 32.2491 39.3677 32.0117 39.605C31.7744 39.8424 31.641 40.1643 31.641 40.5V46.1877C26.5418 43.8733 22.543 39.6657 20.4909 34.4554ZM16.5674 52.5538C17.1403 51.5825 17.9562 50.7771 18.9349 50.217C19.9135 49.6569 21.0212 49.3613 22.1489 49.3594H31.641V51.8906H29.1098C28.8295 51.8909 28.5573 51.9841 28.3357 52.1558C28.1142 52.3275 27.9559 52.5678 27.8857 52.8391C27.8155 53.1104 27.8373 53.3974 27.9478 53.655C28.0582 53.9126 28.251 54.1262 28.496 54.2624L39.2348 60.2285V63.266C36.8104 61.8365 33.9279 61.3977 31.1879 62.0409L7.66504 67.6831L16.5674 52.5538ZM49.6661 75.9375C48.1294 75.9418 46.6071 75.6411 45.1874 75.0531C43.7677 74.465 42.4788 73.6011 41.3952 72.5114C41.1579 72.2742 40.836 72.1409 40.5004 72.1409C40.1648 72.1409 39.843 72.2742 39.6056 72.5114C38.5221 73.6011 37.2331 74.465 35.8134 75.0531C34.3937 75.6411 32.8714 75.9418 31.3348 75.9375H5.29199L6.17793 70.6434L31.7815 64.5C33.1664 64.1728 34.6117 64.2038 35.9813 64.5899C37.3509 64.9761 38.5995 65.7048 39.6094 66.7073C39.8468 66.9445 40.1686 67.0778 40.5042 67.0778C40.8398 67.0778 41.1617 66.9445 41.399 66.7073C42.4089 65.7047 43.6575 64.976 45.0271 64.5898C46.3967 64.2036 47.8421 64.1727 49.2269 64.5L74.8305 70.6434L75.7164 75.9375H49.6661Z" fill="#FDC600"/>
</svg>
