<svg width="50" height="50" viewBox="0 0 50 50" fill="none" xmlns="http://www.w3.org/2000/svg">
<g clip-path="url(#clip0)">
<path d="M35.6581 0.899902V10.3305H44.2041L35.6581 0.899902Z" fill="#FDC600"/>
<path d="M34.1933 13.2602C33.3843 13.2602 32.7284 12.6043 32.7284 11.7953V0H9.19141C6.86953 0 4.98047 1.88906 4.98047 4.21094V45.7891C4.98047 48.1109 6.86953 50 9.19141 50H40.8086C43.1305 50 45.0195 48.1109 45.0195 45.7891V13.2602H34.1933ZM32.9409 20.2348C33.5129 19.6628 34.4404 19.6628 35.0125 20.2348L35.8695 21.0918L38.9422 18.0191C39.5142 17.4472 40.4417 17.4472 41.0138 18.0191C41.5858 18.5911 41.5858 19.5187 41.0138 20.0907L36.9054 24.1991C36.6193 24.4852 36.2444 24.6282 35.8696 24.6282C35.4948 24.6282 35.1198 24.4852 34.8339 24.1991L32.941 22.3062C32.3689 21.7344 32.3689 20.8068 32.9409 20.2348ZM32.9409 30.197C33.5129 29.625 34.4404 29.625 35.0125 30.197L35.8695 31.054L38.9422 27.9813C39.5142 27.4094 40.4417 27.4094 41.0138 27.9813C41.5858 28.5533 41.5858 29.4809 41.0138 30.0529L36.9054 34.1613C36.6193 34.4474 36.2444 34.5904 35.8696 34.5904C35.4948 34.5904 35.1198 34.4474 34.8339 34.1613L32.941 32.2685C32.3689 31.6966 32.3689 30.7689 32.9409 30.197ZM12.1642 4.98311H16.7494C17.5584 4.98311 18.2143 5.63896 18.2143 6.44795C18.2143 7.25693 17.5584 7.91279 16.7494 7.91279H12.1642C11.3552 7.91279 10.6993 7.25693 10.6993 6.44795C10.6993 5.63896 11.3551 4.98311 12.1642 4.98311ZM12.1642 10.0711H22.1304C22.9394 10.0711 23.5952 10.727 23.5952 11.5359C23.5952 12.3449 22.9394 13.0008 22.1304 13.0008H12.1642C11.3552 13.0008 10.6993 12.3449 10.6993 11.5359C10.6993 10.727 11.3551 10.0711 12.1642 10.0711ZM27.2931 42.5047H12.1642C11.3552 42.5047 10.6993 41.8488 10.6993 41.0398C10.6993 40.2309 11.3552 39.575 12.1642 39.575H27.2932C28.1021 39.575 28.758 40.2309 28.758 41.0398C28.758 41.8488 28.1021 42.5047 27.2931 42.5047ZM27.2931 32.8881H12.1642C11.3552 32.8881 10.6993 32.2322 10.6993 31.4232C10.6993 30.6143 11.3552 29.9584 12.1642 29.9584H27.2932C28.1021 29.9584 28.758 30.6143 28.758 31.4232C28.758 32.2322 28.1021 32.8881 27.2931 32.8881ZM27.2931 22.926H12.1642C11.3552 22.926 10.6993 22.2701 10.6993 21.4611C10.6993 20.6521 11.3552 19.9963 12.1642 19.9963H27.2932C28.1021 19.9963 28.758 20.6521 28.758 21.4611C28.758 22.2701 28.1021 22.926 27.2931 22.926ZM41.0139 39.6696L36.9055 43.7779C36.6194 44.064 36.2445 44.207 35.8697 44.207C35.4948 44.207 35.12 44.0641 34.834 43.7779L32.9411 41.8851C32.369 41.3131 32.369 40.3855 32.9411 39.8135C33.5131 39.2415 34.4406 39.2415 35.0127 39.8135L35.8697 40.6705L38.9424 37.5979C39.5145 37.0259 40.4418 37.0259 41.014 37.5979C41.5858 38.1701 41.5858 39.0977 41.0139 39.6696Z" fill="#FDC600"/>
</g>
<defs>
<clipPath id="clip0">
<rect width="50" height="50" fill="white"/>
</clipPath>
</defs>
</svg>
