<svg width="69" height="69" viewBox="0 0 69 69" fill="none" xmlns="http://www.w3.org/2000/svg">
<g clip-path="url(#clip0)">
<path d="M34.4531 14.2036C35.5676 14.2036 36.4746 13.2971 36.4746 12.1821C36.4746 11.0677 35.5676 10.1606 34.4531 10.1606C33.3381 10.1606 32.4316 11.0677 32.4316 12.1821C32.4316 13.2971 33.3381 14.2036 34.4531 14.2036Z" fill="#FDC600"/>
<path d="M30.5007 24.7074L32.9317 29.57C33.2202 30.1464 33.8093 30.5107 34.4541 30.5107C35.0985 30.5107 35.6881 30.1464 35.976 29.57L38.4076 24.7074C43.5771 23.0149 47.1226 18.1734 47.1226 12.6685C47.1226 5.68279 41.4393 0 34.4541 0C27.469 0 21.7856 5.68279 21.7856 12.6685C21.7856 18.1728 25.3311 23.0144 30.5007 24.7074ZM34.4541 6.11762C37.798 6.11762 40.5186 8.8382 40.5186 12.1821C40.5186 15.5265 37.798 18.2471 34.4541 18.2471C31.1097 18.2471 28.3892 15.5265 28.3892 12.1821C28.3892 8.8382 31.1097 6.11762 34.4541 6.11762Z" fill="#FDC600"/>
<path d="M68.8326 65.3665H50.7599C49.1069 65.3665 47.5613 64.7101 46.4063 63.5172C45.7541 62.8434 45.2771 62.05 44.9944 61.1888H40.8541C37.5102 61.1888 34.7897 58.4682 34.7897 55.1244C34.7897 51.78 37.5102 49.0594 40.8541 49.0594H45.2703C46.3668 49.0594 47.2733 48.1676 47.2918 47.0716C47.346 43.7835 50.066 41.1082 53.3557 41.1082H56.3195C50.1666 36.0424 42.5081 33.2818 34.4522 33.2818C25.4087 33.2818 16.8622 36.7594 10.3882 43.0744C10.2787 43.1813 10.1713 43.2908 10.0634 43.3992H18.9552C22.2991 43.3992 25.0197 46.1198 25.0197 49.4637C25.0197 52.8081 22.2991 55.5287 18.9552 55.5287H17.5176C16.421 55.5287 15.5145 56.4204 15.4966 57.5164C15.4419 60.8045 12.7218 63.4798 9.43271 63.4798H0.25182C0.112844 64.6043 0.0286153 65.7408 -0.000338152 66.8863C-0.0140253 67.4312 0.192861 67.9581 0.572941 68.3482C0.953548 68.7383 1.47471 68.9578 2.01956 68.9583L66.8833 68.9999H66.8843C67.4287 68.9999 67.9498 68.7804 68.3304 68.3914C68.711 68.0018 68.9185 67.4749 68.9058 66.9305C68.8932 66.4073 68.8679 65.8861 68.8326 65.3665Z" fill="#FDC600"/>
<path d="M51.3346 47.1385C51.2804 50.4271 48.5598 53.1029 45.2707 53.1029H40.8545C39.74 53.1029 38.833 54.0094 38.833 55.1244C38.833 56.2389 39.74 57.1459 40.8545 57.1459H46.72C47.2674 57.1459 47.7912 57.368 48.1724 57.7613C48.553 58.1545 48.7583 58.6857 48.7404 59.2332C48.7225 59.7833 48.9257 60.306 49.3121 60.7051C49.698 61.1041 50.2123 61.3236 50.7603 61.3236H68.3172C67.1896 55.3218 64.5122 49.7854 60.4639 45.1486C60.3292 45.1486 53.3561 45.1512 53.3561 45.1512C52.2596 45.1512 51.3525 46.0425 51.3346 47.1385Z" fill="#FDC600"/>
<path d="M11.4546 57.4496C11.5094 54.1605 14.2294 51.4852 17.5185 51.4852H18.9562C20.0707 51.4852 20.9777 50.5782 20.9777 49.4637C20.9777 48.3493 20.0707 47.4422 18.9562 47.4422H6.59778C3.95932 51.0493 2.06313 55.1133 0.996582 59.4369H9.43365C10.5297 59.4369 11.4367 58.5451 11.4546 57.4496Z" fill="#FDC600"/>
</g>
<defs>
<clipPath id="clip0">
<rect width="69" height="69" fill="white"/>
</clipPath>
</defs>
</svg>
