<svg width="75" height="75" viewBox="0 0 75 75" fill="none" xmlns="http://www.w3.org/2000/svg">
<path d="M35.474 63.8631C31.723 60.7684 28.7183 56.8675 26.6838 52.4508C25.7646 52.5524 24.8387 52.3329 24.063 51.8295C23.2873 51.3261 22.7096 50.5699 22.428 49.6891C22.1464 48.8083 22.1781 47.8572 22.5179 46.9972C22.8577 46.1372 23.4845 45.4212 24.2921 44.9707C23.1687 39.0258 23.7276 32.8852 25.9059 27.2408C25.4835 26.8893 25.1386 26.454 24.8932 25.9623C24.6477 25.4706 24.5071 24.9333 24.48 24.3844C23.7259 24.3289 22.9686 24.299 22.2179 24.299C18.6799 24.2943 15.1686 24.9115 11.8443 26.1226C10.0237 29.7432 9.07764 33.7404 9.08205 37.793C9.08205 52.1703 20.779 63.8672 35.1563 63.8672C35.2625 63.8672 35.3681 63.8644 35.474 63.8631Z" fill="#FDC600"/>
<path d="M38.2937 11.9105C33.4753 11.3223 28.5884 12.0935 24.1853 14.1369C19.7822 16.1803 16.0383 19.4144 13.3767 23.4738C16.2527 22.6582 19.228 22.2458 22.2175 22.2482C23.1094 22.2482 24.01 22.2861 24.9047 22.3595C25.3263 21.5225 26.0287 20.8602 26.8891 20.4886C27.7495 20.1169 28.7131 20.0595 29.6116 20.3263C31.9571 17.0056 34.9015 14.1515 38.2937 11.9105Z" fill="#FDC600"/>
<path d="M50.9534 44.9961C49.4767 40.5858 47.0064 36.5737 43.7331 33.2696C40.4598 29.9655 36.471 27.4577 32.0747 25.9398C31.6909 26.7207 31.0629 27.3552 30.286 27.747C29.509 28.1388 28.6255 28.2666 27.7694 28.111C26.447 31.5639 25.7719 35.2308 25.7781 38.9283C25.7779 40.7852 25.9477 42.6382 26.2854 44.4641C27.1277 44.472 27.9461 44.7455 28.624 45.2455C29.302 45.7455 29.8049 46.4466 30.0613 47.249C30.3177 48.0514 30.3145 48.9143 30.0521 49.7147C29.7897 50.5152 29.2815 51.2125 28.5998 51.7074C30.8263 56.485 34.2601 60.5995 38.5622 63.6447C43.6916 62.9696 48.5026 60.7785 52.3789 57.3521C52.4608 56.4373 52.5029 55.5096 52.5029 54.5936C52.5029 53.8823 52.4762 53.1664 52.4267 52.455C51.5921 52.3491 50.812 51.9832 50.1971 51.4091C49.5821 50.835 49.1635 50.0819 49.0005 49.2566C48.8375 48.4313 48.9385 47.5756 49.2891 46.8108C49.6397 46.0461 50.2221 45.4111 50.9538 44.996L50.9534 44.9961Z" fill="#FDC600"/>
<path d="M62.9284 13.7645C61.1965 12.0777 58.8744 11.1338 56.4568 11.1338C54.0392 11.1338 51.7171 12.0777 49.9852 13.7645C48.326 15.3924 47.3214 17.5723 47.1619 19.8913C47.0814 21.1442 47.2703 22.3997 47.716 23.5734C48.1958 24.8152 48.925 25.9455 49.8588 26.8945L56.4569 33.7814L63.0548 26.8945C63.9887 25.9456 64.7181 24.8154 65.1979 23.5735C65.6435 22.3998 65.8324 21.1443 65.7518 19.8915C65.5923 17.5724 64.5877 15.3924 62.9284 13.7645ZM56.4569 25.2262C55.3627 25.2317 54.2915 24.9124 53.379 24.3085C52.4666 23.7047 51.7539 22.8435 51.3313 21.8343C50.9087 20.825 50.7952 19.7129 51.0053 18.6391C51.2153 17.5653 51.7394 16.578 52.5112 15.8023C53.2829 15.0266 54.2675 14.4975 55.3403 14.282C56.413 14.0664 57.5256 14.1742 58.537 14.5916C59.5485 15.0091 60.4132 15.7174 61.0217 16.6268C61.6302 17.5361 61.955 18.6057 61.955 19.6999C61.9571 21.1613 61.3794 22.5639 60.3487 23.5999C59.3179 24.6359 57.9183 25.2208 56.4569 25.2262Z" fill="#FDC600"/>
<path d="M57.1971 35.9729C57.1014 36.0728 56.9865 36.1523 56.8592 36.2066C56.7319 36.261 56.595 36.289 56.4566 36.289C56.3183 36.289 56.1813 36.261 56.0541 36.2066C55.9268 36.1523 55.8119 36.0728 55.7162 35.9729L48.3773 28.3131C47.2497 27.1626 46.3702 25.7929 45.7933 24.2888C45.2457 22.8423 45.0145 21.2952 45.1152 19.7518C45.2438 17.8787 45.8282 16.0655 46.8175 14.4698C44.9188 13.5206 42.9111 12.8072 40.8391 12.3458L41.0093 12.6423C37.2043 14.8337 33.9157 17.8187 31.3669 21.3942C32.0217 22.077 32.415 22.9687 32.4776 23.9127C37.2514 25.5138 41.5863 28.2058 45.1379 31.775C48.6896 35.3441 51.3603 39.6922 52.9379 44.4738C53.8644 44.4751 54.7617 44.7975 55.4772 45.3861C56.1926 45.9747 56.6819 46.7931 56.8617 47.702C57.0415 48.6108 56.9007 49.5539 56.4634 50.3706C56.026 51.1873 55.319 51.8271 54.4628 52.1811C54.5214 52.9831 54.5523 53.7912 54.5523 54.5937C54.5523 54.7973 54.5493 55.0016 54.5453 55.206C57.2937 52.1491 59.2803 48.4858 60.3432 44.5149C61.4061 40.544 61.515 36.3781 60.6612 32.3571L57.1971 35.9729Z" fill="#FDC600"/>
<path d="M56.458 16.2244C55.7694 16.2188 55.0947 16.4178 54.5194 16.7963C53.9441 17.1748 53.4942 17.7157 53.2268 18.3503C52.9594 18.9848 52.8866 19.6846 53.0175 20.3606C53.1484 21.0367 53.4772 21.6586 53.9621 22.1475C54.4471 22.6364 55.0663 22.9703 55.7413 23.1067C56.4163 23.2431 57.1166 23.1759 57.7533 22.9136C58.39 22.6514 58.9345 22.2059 59.3177 21.6338C59.7008 21.0616 59.9054 20.3885 59.9054 19.6998C59.9081 18.7821 59.5466 17.9008 58.9003 17.2493C58.254 16.5977 57.3757 16.2291 56.458 16.2244Z" fill="#FDC600"/>
</svg>
