<svg width="67" height="67" viewBox="0 0 67 67" fill="none" xmlns="http://www.w3.org/2000/svg">
<path d="M2.39289 46.6607V3.58936H1.19645C0.536 3.59014 0.000916016 4.12536 0 4.78567V49.0536C0.000916016 49.714 0.536 50.2491 1.19645 50.25H40.6786V47.8571H3.58934C2.9285 47.8571 2.39289 47.3215 2.39289 46.6607Z" fill="#FDC600"/>
<path d="M28.7148 41.4179V2.39289C28.7135 1.07187 27.6429 0.00130859 26.3219 0H19.1434V19.1429C19.1436 19.4602 19.0176 19.7647 18.7932 19.9892C18.5688 20.2136 18.2643 20.3396 17.9469 20.3393C17.5834 20.3395 17.2396 20.1742 17.0128 19.8901L13.1613 15.0758L9.30968 19.8901C8.99248 20.2871 8.45896 20.4404 7.97936 20.2721C7.49976 20.1039 7.1789 19.651 7.17903 19.1429V0H5.98258C5.32213 0.000916016 4.78705 0.536 4.78613 1.19645V40.6786H26.2079C27.0966 40.684 27.9655 40.9403 28.7148 41.4179Z" fill="#FDC600"/>
<path d="M13.161 11.9643C13.5245 11.9643 13.8682 12.1296 14.0951 12.4136L16.7503 15.7323V0H9.57178V15.7323L12.2269 12.4135C12.4538 12.1296 12.7976 11.9643 13.161 11.9643Z" fill="#FDC600"/>
<path d="M59.8211 25.1956V4.78568C59.8202 4.12523 59.2851 3.59015 58.6247 3.58923H57.4282V25.125H58.6247C59.0244 25.1265 59.424 25.15 59.8211 25.1956Z" fill="#FDC600"/>
<path d="M26.2079 43.0714H4.78613V45.4643H28.6866C28.5942 44.1501 27.5247 43.1175 26.2079 43.0714Z" fill="#FDC600"/>
<path d="M43.0718 58.625C43.077 63.2483 46.8235 66.9948 51.4468 67H58.6253C63.2486 66.9948 66.9951 63.2483 67.0003 58.625V45.4644H43.0718V58.625Z" fill="#FDC600"/>
<path d="M31.1353 45.4643H40.6784V43.0714H33.6196C32.3013 43.116 31.2293 44.1485 31.1353 45.4643Z" fill="#FDC600"/>
<path d="M58.6248 27.5179H56.2319V43.0714H66.9998V35.8929C66.9946 31.2696 63.2481 27.523 58.6248 27.5179Z" fill="#FDC600"/>
<path d="M43.0718 35.8929V43.0714H53.8397V27.5179H51.4468C46.8235 27.523 43.077 31.2696 43.0718 35.8929Z" fill="#FDC600"/>
<path d="M51.4463 25.125H55.0356V1.19645C55.0347 0.536 54.4996 0.000916016 53.8392 0H33.4998C32.1788 0.00130859 31.1082 1.07187 31.1069 2.39289V41.4197C31.8579 40.9409 32.7289 40.684 33.6196 40.6786H40.6784V35.8929C40.6853 29.9487 45.5023 25.1319 51.4463 25.125Z" fill="#FDC600"/>
</svg>
