<svg width="16" height="23" viewBox="0 0 26 35" fill="none" xmlns="http://www.w3.org/2000/svg">
<path d="M12.6757 0C5.68627 0 0 5.68627 0 12.6756C0 21.3496 11.3435 34.0835 11.8264 34.6214C12.2801 35.1266 13.0721 35.1257 13.5249 34.6214C14.0079 34.0835 25.3513 21.3496 25.3513 12.6756C25.3512 5.68627 19.665 0 12.6757 0ZM12.6757 19.0531C9.15913 19.0531 6.29829 16.1921 6.29829 12.6756C6.29829 9.15906 9.1592 6.29822 12.6757 6.29822C16.1921 6.29822 19.053 9.15913 19.053 12.6757C19.053 16.1922 16.1921 19.0531 12.6757 19.0531Z" fill="#003A78"/>
</svg>
