<svg width="59" height="67" viewBox="0 0 59 67" fill="none" xmlns="http://www.w3.org/2000/svg">
<path d="M29.4998 20.7356C22.4605 20.7356 16.7339 26.4622 16.7339 33.501C16.7339 40.5404 22.4605 46.267 29.4998 46.267C36.5386 46.267 42.2653 40.5404 42.2653 33.501C42.2653 26.4622 36.5386 20.7356 29.4998 20.7356ZM37.0789 31.097L27.9336 40.2423C27.5497 40.6262 27.0462 40.8184 26.5432 40.8184C26.0402 40.8184 25.5372 40.6267 25.1534 40.2423L21.6585 36.7475C20.8907 35.9802 20.8907 34.7355 21.6585 33.9677C22.4258 33.2 23.6705 33.2 24.4382 33.9677L26.5432 36.0727L34.2992 28.3173C35.0665 27.5495 36.3112 27.5495 37.0789 28.3173C37.8467 29.0845 37.8467 30.3292 37.0789 31.097Z" fill="#FDC600"/>
<path d="M57.9607 18.1787L57.9586 18.1265C57.9295 17.483 57.9101 16.8021 57.8983 16.0445C57.8436 12.3503 54.907 9.29457 51.2122 9.08805C43.5089 8.65816 37.5497 6.14628 32.458 1.18335L32.4146 1.14195C30.7538 -0.380822 28.2485 -0.380822 26.5872 1.14195L26.5438 1.18335C21.452 6.14628 15.4928 8.65816 7.78955 9.08856C4.09533 9.29457 1.15816 12.3503 1.10347 16.045C1.09222 16.7975 1.07229 17.4784 1.04315 18.1265L1.04008 18.2477C0.890312 26.1028 0.704246 35.8789 3.9747 44.7522C5.77299 49.6319 8.49649 53.8735 12.069 57.3602C16.1379 61.331 21.4674 64.4833 27.9091 66.7294C28.1187 66.8025 28.3365 66.8618 28.5583 66.9063C28.8711 66.9686 29.186 66.9998 29.5009 66.9998C29.8158 66.9998 30.1312 66.9686 30.4435 66.9063C30.6653 66.8618 30.8846 66.802 31.0952 66.7284C37.5293 64.4782 42.8531 61.3243 46.9184 57.3541C50.4895 53.8664 53.213 49.6237 55.0128 44.743C58.2955 35.8431 58.1099 26.0486 57.9607 18.1787ZM29.4999 50.1982C20.2927 50.1982 12.8026 42.7081 12.8026 33.5009C12.8026 24.2938 20.2927 16.8036 29.4999 16.8036C38.7065 16.8036 46.1972 24.2938 46.1972 33.5009C46.1972 42.7081 38.7065 50.1982 29.4999 50.1982Z" fill="#FDC600"/>
</svg>
