<svg width="57" height="57" viewBox="0 0 57 57" fill="none" xmlns="http://www.w3.org/2000/svg">
<g clip-path="url(#clip0)">
<path d="M28.4999 14.2504C32.4348 14.2504 35.6247 11.0604 35.6247 7.12548C35.6247 3.19053 32.4348 0.000610352 28.4999 0.000610352C24.5649 0.000610352 21.375 3.19053 21.375 7.12548C21.375 11.0604 24.5649 14.2504 28.4999 14.2504Z" fill="#FDC600"/>
<path d="M39.1727 33.6157L37.5554 21.0189C37.3737 19.1914 35.849 17.8127 34.0143 17.8127H32.0621C31.5883 17.8127 31.1359 18.0016 30.801 18.3329L28.4997 20.6342L26.1983 18.3329C25.8634 18.0016 25.411 17.8127 24.9372 17.8127H22.9886C21.1503 17.8127 19.6256 19.1914 19.4475 20.9726L17.8266 33.6193C17.7625 34.1251 17.9192 34.6381 18.2576 35.0193C18.5961 35.4041 19.0806 35.6249 19.5936 35.6249H21.5173L23.0064 53.7934C23.1845 55.6173 24.7128 56.9996 26.551 56.9996H30.4519C32.2901 56.9996 33.8148 55.6173 34.0001 53.7613L35.4856 35.6249H37.4057C37.9187 35.6249 38.4032 35.4041 38.7417 35.0193C39.0837 34.6381 39.2404 34.1251 39.1727 33.6157Z" fill="#FDC600"/>
<path d="M46.3121 14.2504C50.2471 14.2504 53.437 11.0604 53.437 7.12548C53.437 3.19053 50.2471 0.000610352 46.3121 0.000610352C42.3772 0.000610352 39.1873 3.19053 39.1873 7.12548C39.1873 11.0604 42.3772 14.2504 46.3121 14.2504Z" fill="#FDC600"/>
<path d="M10.6879 0.000610352C6.75849 0.000610352 3.56299 3.19612 3.56299 7.12548C3.56299 11.0549 6.75849 14.2504 10.6879 14.2504C14.6137 14.2504 17.8127 11.0549 17.8127 7.12548C17.8127 3.19612 14.6137 0.000610352 10.6879 0.000610352Z" fill="#FDC600"/>
<path d="M56.9849 33.6157L55.3676 21.0225C55.1859 19.1914 53.6647 17.8127 51.8265 17.8127H49.8743C49.4005 17.8127 48.948 18.0016 48.6132 18.3329L46.3118 20.6342L44.0105 18.3329C43.6756 18.0016 43.2232 17.8127 42.753 17.8127H40.8008C40.5799 17.8127 40.3804 17.8911 40.1702 17.9303C40.6298 18.7425 40.9896 19.6225 41.0964 20.6093L42.7102 33.1633C42.9097 34.6916 42.4324 36.2305 41.4064 37.3883C40.9219 37.9441 40.302 38.3359 39.6394 38.6423L40.8221 50.2309C41.0038 52.0585 42.5285 53.4371 44.3668 53.4371H48.2676C50.1058 53.4371 51.6306 52.0549 51.8158 50.1989L53.2978 35.6249H55.2179C55.7309 35.6249 56.2154 35.4041 56.5538 35.0193C56.8958 34.6381 57.0526 34.1251 56.9849 33.6157Z" fill="#FDC600"/>
<path d="M15.5816 37.3705C14.5698 36.227 14.0996 34.6916 14.292 33.1704L15.9129 20.5202C16.0055 19.5726 16.3546 18.7176 16.7999 17.9267C16.6004 17.8911 16.4116 17.8127 16.2014 17.8127H14.2492C13.7754 17.8127 13.323 18.0016 12.9881 18.3329L10.6868 20.6342L8.38544 18.3329C8.05057 18.0016 7.59814 17.8127 7.12789 17.8127H5.17557C3.33735 17.8127 1.81263 19.1914 1.63451 20.9726L0.0135964 33.6193C-0.0505275 34.1251 0.10622 34.6381 0.444651 35.0193C0.783083 35.4041 1.27114 35.6249 1.78057 35.6249H3.70428L5.19338 50.2309C5.3715 52.0549 6.89979 53.4371 8.73801 53.4371H12.6389C14.4771 53.4371 16.0018 52.0549 16.1871 50.1989L17.3698 38.6388C16.7037 38.3288 16.0803 37.9334 15.5816 37.3705Z" fill="#FDC600"/>
</g>
<defs>
<clipPath id="clip0">
<rect width="57" height="57" fill="white"/>
</clipPath>
</defs>
</svg>
