<svg width="48" height="50" viewBox="0 0 48 50" fill="none" xmlns="http://www.w3.org/2000/svg">
<path d="M41.0226 32.8094L31.7273 31.2505C31.6436 31.2365 31.5579 31.2405 31.4759 31.2621C31.3938 31.2838 31.3173 31.3227 31.2515 31.3762C31.1856 31.4298 31.1319 31.4967 31.0939 31.5726C31.056 31.6485 31.0346 31.7316 31.0312 31.8164C30.8652 36.0214 28.21 39.0625 24 39.0625C19.79 39.0625 17.1354 36.0214 16.9688 31.8164C16.9655 31.7316 16.9441 31.6484 16.9062 31.5725C16.8683 31.4965 16.8146 31.4295 16.7487 31.3759C16.6829 31.3223 16.6063 31.2834 16.5243 31.2617C16.4422 31.24 16.3564 31.236 16.2727 31.25L6.97744 32.8094C5.17737 33.1367 3.54926 34.0854 2.37695 35.49C1.20465 36.8947 0.562513 38.6663 0.5625 40.4958V49.2188C0.5625 49.426 0.64481 49.6247 0.791323 49.7712C0.937836 49.9177 1.13655 50 1.34375 50H6.03125C6.23845 50 6.43716 49.9177 6.58368 49.7712C6.73019 49.6247 6.8125 49.426 6.8125 49.2188V42.467C6.80991 42.2654 6.88363 42.0703 7.01888 41.9207C7.15414 41.7712 7.34093 41.6783 7.5418 41.6607C7.64854 41.6536 7.7556 41.6685 7.85635 41.7044C7.95711 41.7404 8.0494 41.7966 8.12752 41.8697C8.20563 41.9428 8.26791 42.0312 8.31048 42.1293C8.35305 42.2275 8.37501 42.3333 8.375 42.4403V49.2188C8.375 49.426 8.45731 49.6247 8.60382 49.7712C8.75034 49.9177 8.94905 50 9.15625 50H38.8438C39.0509 50 39.2497 49.9177 39.3962 49.7712C39.5427 49.6247 39.625 49.426 39.625 49.2188V42.467C39.6224 42.2654 39.6961 42.0703 39.8313 41.9208C39.9666 41.7712 40.1534 41.6784 40.3542 41.6608C40.4609 41.6537 40.568 41.6685 40.6688 41.7045C40.7695 41.7404 40.8618 41.7967 40.9399 41.8698C41.0181 41.9428 41.0804 42.0312 41.1229 42.1293C41.1655 42.2275 41.1875 42.3333 41.1875 42.4403V49.2188C41.1875 49.426 41.2698 49.6247 41.4163 49.7712C41.5628 49.9177 41.7616 50 41.9688 50H46.6562C46.8634 50 47.0622 49.9177 47.2087 49.7712C47.3552 49.6247 47.4375 49.426 47.4375 49.2188V40.4958C47.4382 38.6661 46.7964 36.8941 45.6239 35.4893C44.4515 34.0845 42.823 33.136 41.0226 32.8094Z" fill="#FDC600"/>
<path d="M16.4052 8.38428C17.5927 8.3847 18.7584 8.70297 19.7813 9.30606L20.9702 10.0071L21.0061 10.0311C21.8926 10.6221 22.9343 10.9375 23.9999 10.9375C25.0654 10.9375 26.1071 10.6221 26.9937 10.0311L27.0295 10.0071L28.2188 9.30606C29.2417 8.70294 30.4074 8.38467 31.5949 8.38428C33.2617 8.37479 34.8675 9.01058 36.0761 10.1585C35.6735 7.85638 34.6234 5.71658 33.0487 3.98965C31.9004 2.7326 30.5028 1.7286 28.9449 1.04169C27.3871 0.354768 25.7032 0 24.0006 0C22.298 0 20.6141 0.354768 19.0563 1.04169C17.4984 1.7286 16.1008 2.7326 14.9525 3.98965C13.3776 5.71654 12.3273 7.85633 11.9245 10.1585C13.133 9.01073 14.7386 8.37496 16.4052 8.38428Z" fill="#FDC600"/>
<path d="M23.7482 30.4687C21.5406 30.4684 19.3866 29.7892 17.5782 28.5231C15.7697 27.257 14.3945 25.4653 13.6389 23.3911C12.9479 23.2789 12.3049 22.9664 11.7898 22.4923C11.2746 22.0183 10.9099 21.4034 10.7409 20.7241L10.3112 19.0053C10.2046 18.5972 10.1936 18.1701 10.279 17.757C10.3644 17.344 10.5438 16.9562 10.8034 16.6238C11.1098 16.2398 11.5168 15.9483 11.979 15.7817L11.6567 13.4433C11.611 13.1103 11.6733 12.7714 11.8346 12.4765C11.9553 12.2557 12.0931 12.0448 12.2466 11.8454C13.7749 9.85932 16.5767 9.37797 18.7352 10.6511L19.8876 11.3309C21.0309 12.0929 22.3741 12.4995 23.7481 12.4995C25.1221 12.4995 26.4653 12.0929 27.6087 11.3309L28.761 10.651C30.9192 9.37787 33.7213 9.85932 35.2494 11.8454C35.403 12.0447 35.5408 12.2557 35.6615 12.4765C35.8227 12.7714 35.8851 13.1103 35.8394 13.4433L35.5171 15.7817C36.1389 16.0072 36.6551 16.455 36.966 17.0388C37.2769 17.6226 37.3604 18.3009 37.2005 18.9426L36.7552 20.7239C36.5862 21.4032 36.2215 22.0181 35.7064 22.4922C35.1913 22.9662 34.5483 23.2787 33.8573 23.3909C33.1017 25.4651 31.7265 27.2568 29.9182 28.5229C28.1098 29.789 25.9558 30.4683 23.7482 30.4687Z" fill="#FDC600"/>
</svg>
